PathFileType	4	(X/Y/Z)	C:/Users/dbak576/Desktop/Duncan Bakke Modelling Files/H24s1/Static_H24s1.trc	
DataRate	CameraRate	NumFrames	NumMarkers	Units	OrigDataRate	OrigDataStartFrame	OrigNumFrames	
200.00	200.00	4	61	mm	200.00	7	32	
Frame#	Time	LFHD			RFHD			LBHD			RBHD			C7			T10			CLAV			STRN			RBack			LASI			RASI			LPSI			RPSI			RACR1			RUA1			RElbow			RElbowM			RFA1			RWRR			RWRU			RCAR			LACR1			LUA1			LElbow			LElbowM			LFA1			LWRR			LWRU			LCAR			RTH1			RTH3			RTH2			RTH4			RLFC			RMFC			RTB1			RTB2			RTB4			RLMAL			RMMAL			RCAL			RMT1			RMT5			RToe			LTH1			LTH3			LTH2			LTH4			LLFC			LMFC			LTB1			LTB3			LTB2			LTB4			LLMAL			LMMAL			LCAL			LMT1			LMT5			LToe			RTB3			
		X1	Y1	Z1	X2	Y2	Z2	X3	Y3	Z3	X4	Y4	Z4	X5	Y5	Z5	X6	Y6	Z6	X7	Y7	Z7	X8	Y8	Z8	X9	Y9	Z9	X10	Y10	Z10	X11	Y11	Z11	X12	Y12	Z12	X13	Y13	Z13	X14	Y14	Z14	X15	Y15	Z15	X16	Y16	Z16	X17	Y17	Z17	X18	Y18	Z18	X19	Y19	Z19	X20	Y20	Z20	X21	Y21	Z21	X22	Y22	Z22	X23	Y23	Z23	X24	Y24	Z24	X25	Y25	Z25	X26	Y26	Z26	X27	Y27	Z27	X28	Y28	Z28	X29	Y29	Z29	X30	Y30	Z30	X31	Y31	Z31	X32	Y32	Z32	X33	Y33	Z33	X34	Y34	Z34	X35	Y35	Z35	X36	Y36	Z36	X37	Y37	Z37	X38	Y38	Z38	X39	Y39	Z39	X40	Y40	Z40	X41	Y41	Z41	X42	Y42	Z42	X43	Y43	Z43	X44	Y44	Z44	X45	Y45	Z45	X46	Y46	Z46	X47	Y47	Z47	X48	Y48	Z48	X49	Y49	Z49	X50	Y50	Z50	X51	Y51	Z51	X52	Y52	Z52	X53	Y53	Z53	X54	Y54	Z54	X55	Y55	Z55	X56	Y56	Z56	X57	Y57	Z57	X58	Y58	Z58	X59	Y59	Z59	X60	Y60	Z60	X61	Y61	Z61	

7	0.030	-63.33559	-241.99939	1701.71118	8.54567	-233.11981	1704.81409	-84.61591	-425.84277	1670.28223	56.60995	-409.15012	1681.60669	-1.38428	-454.47192	1527.72766	3.97114	-523.64795	1289.30029	-14.96188	-308.55984	1462.36865	-19.89450	-241.47491	1299.93396	119.00579	-517.29565	1435.31531	-143.87032	-307.20587	1051.00305	140.26395	-290.92902	1057.26477	-23.17505	-519.83698	1041.32593	55.57422	-511.58569	1044.20667	124.10040	-388.79156	1520.94214	299.65378	-404.70099	1472.90198	439.22339	-382.58945	1411.31873	412.15860	-328.35455	1365.56494	582.43542	-333.67355	1401.43872	680.89038	-233.90384	1473.76685	702.42065	-241.38103	1400.75415	740.00311	-255.79253	1451.56555	-138.37677	-418.28290	1527.26929	-306.06421	-470.01950	1473.87341	-447.03870	-464.95197	1415.69824	-426.26068	-413.12994	1367.94824	-594.02203	-439.08734	1398.13953	-714.46552	-358.19952	1472.69836	-717.96161	-364.20306	1394.40442	-780.28076	-369.88120	1439.82629	212.72055	-352.67120	809.34271	207.09688	-379.79718	620.12073	172.51889	-301.69077	704.08685	213.96613	-362.52304	714.36865	211.75264	-395.36633	507.94919	78.92504	-399.72101	507.84183	150.97804	-363.51367	372.33429	223.68240	-399.04889	285.31439	155.47455	-380.10425	281.15854	222.83842	-451.19461	75.21194	136.70448	-428.37589	91.26453	187.28485	-509.23309	34.93414	156.74254	-316.25070	39.07251	244.12621	-349.70898	24.24970	170.53038	-255.88377	27.12398	-199.60616	-385.33026	804.89545	-189.70145	-424.87186	622.78247	-167.46082	-341.47797	702.53839	-196.52345	-406.23761	713.18427	-189.79694	-454.24002	524.03418	-56.35305	-450.94794	515.29279	-125.68575	-423.96722	382.65198	-147.34676	-436.56128	198.31793	-206.02304	-449.43350	304.23373	-135.46930	-427.84164	294.77310	-201.02045	-484.88535	73.75079	-117.43429	-462.41129	87.86735	-165.98677	-542.21814	25.92995	-142.13852	-340.64996	39.26128	-229.34160	-378.38913	20.73219	-154.49487	-283.18323	25.98047	162.88245	-399.21884	190.44450 
8	0.035	-63.33352	-241.93201	1701.69775	8.52454	-233.08926	1704.80103	-84.58623	-425.82254	1670.28430	56.65693	-409.09457	1681.59973	-1.40412	-454.43317	1527.72302	3.96942	-523.63055	1289.28674	-14.97068	-308.52774	1462.36682	-19.98671	-241.46075	1299.95032	118.98940	-517.25543	1435.30884	-143.87608	-307.18854	1050.99976	140.25140	-290.94232	1057.29248	-23.17829	-519.80804	1041.33374	55.46194	-511.61441	1044.22607	124.08815	-388.75293	1520.78467	299.63251	-404.64252	1472.84241	439.19263	-382.49939	1411.28101	412.14822	-328.23047	1365.51257	582.44531	-333.56400	1401.38843	680.89832	-233.86743	1473.71875	702.37933	-241.26305	1400.71289	739.94659	-255.74074	1451.55432	-138.36986	-418.27682	1527.27185	-306.06427	-469.95071	1473.87952	-447.04611	-464.94724	1415.71545	-426.25046	-413.11002	1367.95056	-594.01636	-439.07626	1398.14819	-714.49506	-358.17300	1472.70715	-717.96307	-364.17502	1394.37280	-780.31042	-369.86301	1439.84814	212.73404	-352.64172	809.34692	207.17113	-379.81317	619.97772	172.52007	-301.62390	704.12701	213.99767	-362.49203	714.37604	211.71710	-395.41132	507.98981	78.90420	-399.71750	507.84955	150.96231	-363.49445	372.34195	223.58681	-399.26801	285.34830	155.45987	-380.10062	281.16089	222.66711	-451.24069	75.04647	136.69344	-428.38638	91.26408	187.26472	-509.28650	34.91790	156.74313	-316.25070	39.10025	244.20819	-349.77582	24.27169	170.50830	-255.86624	27.13210	-199.59369	-385.31985	804.88898	-189.72343	-424.87457	622.78363	-167.47707	-341.46573	702.51294	-196.53455	-406.16928	713.16931	-189.82588	-454.24841	524.02997	-56.37170	-450.93106	515.29242	-125.69296	-423.95776	382.66016	-147.40720	-436.61191	198.32547	-206.03192	-449.42764	304.22815	-135.52782	-427.84717	294.82660	-201.02858	-484.92505	73.75817	-117.42537	-462.34589	87.82870	-165.98541	-542.27655	25.92974	-142.18054	-340.52390	39.24629	-229.29530	-378.39227	20.79578	-154.47621	-283.21768	25.98681	162.88574	-399.43143	190.28128 
9	0.040	-62.29183	-241.55833	1700.45239	8.51683	-233.07925	1704.80896	-84.58789	-425.76346	1670.29248	56.62795	-409.10989	1681.50842	-1.42194	-454.40143	1527.75024	3.97826	-523.56549	1289.27563	-14.99842	-308.46536	1462.39319	-19.96548	-241.37927	1299.95154	119.04376	-517.19598	1435.31775	-143.87958	-307.12402	1051.01526	140.24933	-290.91534	1057.27844	-23.14964	-519.76715	1041.31531	55.50278	-511.55945	1044.22925	123.98833	-388.71082	1520.64868	299.65817	-404.57730	1472.82825	439.14612	-382.45581	1411.25964	412.15509	-328.21112	1365.50354	582.43048	-333.48331	1401.38196	680.85596	-233.82556	1473.71582	702.34277	-241.17558	1400.69836	739.96869	-255.66299	1451.54883	-138.40300	-418.21503	1527.28271	-306.04727	-469.89862	1473.86694	-447.05103	-464.95013	1415.71985	-426.24271	-413.09647	1367.94397	-594.02612	-439.08060	1398.15186	-714.51257	-358.15594	1472.67078	-717.98572	-364.12640	1394.36365	-780.28577	-369.87546	1439.80774	212.74789	-352.61429	809.32373	207.27333	-379.80899	619.88892	172.52934	-301.58176	704.11670	214.01895	-362.48495	714.37683	211.68683	-395.48373	507.99908	78.90010	-399.71124	507.84808	150.95772	-363.48389	372.36493	223.66386	-399.19727	285.33316	155.46333	-380.10065	281.16742	222.75206	-451.19861	75.13963	136.73576	-428.38791	91.27286	187.29091	-509.29883	34.93772	156.73741	-316.24759	39.10031	244.21675	-349.79742	24.28013	170.52231	-255.85976	27.11473	-199.58351	-385.28378	804.88568	-189.71805	-424.80902	622.77954	-167.46613	-341.42422	702.49121	-196.53853	-406.14761	713.14996	-189.77650	-454.22058	523.98993	-56.34443	-450.89145	515.32990	-125.71558	-423.92532	382.66031	-147.39967	-436.62955	198.36989	-206.03677	-449.41779	304.16779	-135.51190	-427.78372	294.84677	-201.01131	-484.90472	73.73125	-117.44154	-462.30524	87.82661	-165.92047	-542.17365	26.00849	-142.12535	-340.67206	39.26774	-229.32237	-378.35925	20.74500	-154.49608	-283.29788	25.97084	163.01120	-399.58228	190.12308 
10	0.045	-61.42645	-241.37109	1699.89819	8.48308	-233.01648	1704.80396	-84.57645	-425.70056	1670.27942	56.63039	-409.00519	1681.55725	-1.41533	-454.34827	1527.72131	3.98304	-523.50818	1289.27332	-15.02100	-308.41855	1462.39575	-19.95160	-241.35716	1299.90527	119.06535	-517.14166	1435.30872	-143.86790	-307.11185	1051.04004	140.24605	-290.89865	1057.26831	-23.14176	-519.75653	1041.31946	55.55331	-511.52216	1044.22388	123.97623	-388.65106	1520.64380	299.69724	-404.50711	1472.81958	439.11618	-382.37396	1411.26050	412.16977	-328.20999	1365.50012	582.36859	-333.40927	1401.54431	680.82440	-233.73299	1473.69189	702.33234	-241.13628	1400.69067	739.96954	-255.61206	1451.52258	-138.37265	-418.18900	1527.28650	-306.06335	-469.88629	1473.88379	-447.03809	-464.93994	1415.70129	-426.24182	-413.09210	1367.93335	-594.02032	-439.07907	1398.15002	-714.52002	-358.12177	1472.66211	-717.98236	-364.06320	1394.36035	-780.28601	-369.82159	1439.81787	212.70316	-352.56998	809.35010	207.32507	-379.79849	619.88989	172.54164	-301.58298	704.09125	214.01888	-362.45612	714.37726	211.70963	-395.51221	507.99881	78.91735	-399.70123	507.85843	150.95602	-363.48291	372.37338	223.61827	-399.31641	285.35205	155.50449	-380.07971	281.16098	222.73717	-451.10031	75.25011	136.75874	-428.37253	91.22503	187.33627	-509.23901	34.94680	156.74367	-316.24863	39.10555	244.20891	-349.80145	24.28895	170.53204	-255.86115	27.10774	-199.59013	-385.23975	804.88654	-189.61888	-424.71243	622.76086	-167.47713	-341.41019	702.48682	-196.53674	-406.15182	713.14642	-189.73827	-454.17001	523.80298	-56.34266	-450.87885	515.33295	-125.72818	-423.86505	382.67480	-147.40283	-436.61172	198.35838	-206.03395	-449.42685	304.19730	-135.53072	-427.75595	294.88071	-201.02211	-484.88245	73.73916	-117.32485	-462.09894	87.71935	-165.88478	-542.11096	26.04096	-142.05634	-340.79022	39.27020	-230.05351	-378.77112	21.25449	-154.48393	-283.35361	25.97181	163.09572	-399.61658	190.10362 
